<svg width="28" height="31" viewBox="0 0 28 31" fill="none" xmlns="http://www.w3.org/2000/svg">
<path d="M27.6288 20.2226L17.3618 11.3219C16.8669 10.8927 16.0639 10.8927 15.5689 11.3219L14.3713 12.3601C13.8768 12.7888 13.8763 13.4831 14.3692 13.9127L22.5061 20.9998L14.3697 28.0873C13.8763 28.5169 13.8774 29.2112 14.3718 29.6399L15.5694 30.6781C16.0644 31.1073 16.8674 31.1073 17.3624 30.6781L27.6288 21.777C28.1237 21.3478 28.1237 20.6517 27.6288 20.2226Z" fill="#FF3860"/>
<path d="M0.371241 9.68368L10.6382 0.33795C11.1331 -0.11265 11.9361 -0.11265 12.4311 0.33795L13.6287 1.42814C14.1232 1.87826 14.1237 2.6073 13.6308 3.05838L5.49387 10.4998L13.6303 17.9416C14.1237 18.3927 14.1226 19.1217 13.6282 19.5719L12.4306 20.6621C11.9356 21.1126 11.1326 21.1126 10.6376 20.6621L0.371241 11.3158C-0.123747 10.8652 -0.123747 10.1343 0.371241 9.68368Z" fill="#F5F5F5"/>
</svg>
